<svg width="21" height="20" viewBox="0 0 21 20" fill="none" xmlns="http://www.w3.org/2000/svg">
<path fill-rule="evenodd" clip-rule="evenodd" d="M15.6609 10C15.6609 10.4142 15.3251 10.75 14.9109 10.75H8.273L10.4308 12.7094C10.7293 12.9965 10.7386 13.4713 10.4515 13.7698C10.1644 14.0684 9.68967 14.0777 9.39109 13.7906L5.89109 10.5406C5.74403 10.3992 5.66092 10.204 5.66092 10C5.66092 9.79599 5.74403 9.60078 5.89109 9.45938L9.39109 6.20938C9.68967 5.92228 10.1644 5.93159 10.4515 6.23017C10.7386 6.52875 10.7293 7.00353 10.4308 7.29063L8.273 9.25L14.9109 9.25C15.3251 9.25 15.6609 9.58579 15.6609 10Z" fill="#4B4B4B"/>
</svg>
