<svg width="21" height="20" viewBox="0 0 21 20" fill="none" xmlns="http://www.w3.org/2000/svg">
<path fill-rule="evenodd" clip-rule="evenodd" d="M5.33911 10C5.33911 9.58579 5.6749 9.25 6.08911 9.25H12.727L10.5693 7.29063C10.2707 7.00353 10.2614 6.52875 10.5485 6.23017C10.8356 5.93159 11.3104 5.92228 11.6089 6.20938L15.1089 9.45938C15.256 9.60078 15.3391 9.79599 15.3391 10C15.3391 10.204 15.256 10.3992 15.1089 10.5406L11.6089 13.7906C11.3104 14.0777 10.8356 14.0684 10.5485 13.7698C10.2614 13.4713 10.2707 12.9965 10.5693 12.7094L12.727 10.75H6.08911C5.6749 10.75 5.33911 10.4142 5.33911 10Z" fill="#4B4B4B"/>
</svg>
