<svg width="16" height="16" viewBox="0 0 16 16" fill="none" xmlns="http://www.w3.org/2000/svg">
<path d="M1.33331 7.99996C1.33331 5.4858 1.33331 4.22872 2.11436 3.44767C2.89541 2.66663 4.15249 2.66663 6.66665 2.66663H9.33331C11.8475 2.66663 13.1045 2.66663 13.8856 3.44767C14.6666 4.22872 14.6666 5.4858 14.6666 7.99996V9.33329C14.6666 11.8475 14.6666 13.1045 13.8856 13.8856C13.1045 14.6666 11.8475 14.6666 9.33331 14.6666H6.66665C4.15249 14.6666 2.89541 14.6666 2.11436 13.8856C1.33331 13.1045 1.33331 11.8475 1.33331 9.33329V7.99996Z" stroke="#1D2026"/>
<path d="M4.66669 2.66663V1.66663" stroke="#1D2026" stroke-linecap="round"/>
<path d="M11.3333 2.66663V1.66663" stroke="#1D2026" stroke-linecap="round"/>
<path d="M1.66669 6H14.3334" stroke="#1D2026" stroke-linecap="round"/>
<path d="M12 11.3333C12 11.7015 11.7015 12 11.3334 12C10.9652 12 10.6667 11.7015 10.6667 11.3333C10.6667 10.9651 10.9652 10.6667 11.3334 10.6667C11.7015 10.6667 12 10.9651 12 11.3333Z" fill="#1D2026"/>
<path d="M12 8.66667C12 9.03486 11.7015 9.33333 11.3334 9.33333C10.9652 9.33333 10.6667 9.03486 10.6667 8.66667C10.6667 8.29848 10.9652 8 11.3334 8C11.7015 8 12 8.29848 12 8.66667Z" fill="#1D2026"/>
<path d="M8.66665 11.3333C8.66665 11.7015 8.36817 12 7.99998 12C7.63179 12 7.33331 11.7015 7.33331 11.3333C7.33331 10.9651 7.63179 10.6667 7.99998 10.6667C8.36817 10.6667 8.66665 10.9651 8.66665 11.3333Z" fill="#1D2026"/>
<path d="M8.66665 8.66667C8.66665 9.03486 8.36817 9.33333 7.99998 9.33333C7.63179 9.33333 7.33331 9.03486 7.33331 8.66667C7.33331 8.29848 7.63179 8 7.99998 8C8.36817 8 8.66665 8.29848 8.66665 8.66667Z" fill="#1D2026"/>
<path d="M5.33333 11.3333C5.33333 11.7015 5.03486 12 4.66667 12C4.29848 12 4 11.7015 4 11.3333C4 10.9651 4.29848 10.6667 4.66667 10.6667C5.03486 10.6667 5.33333 10.9651 5.33333 11.3333Z" fill="#1D2026"/>
<path d="M5.33333 8.66667C5.33333 9.03486 5.03486 9.33333 4.66667 9.33333C4.29848 9.33333 4 9.03486 4 8.66667C4 8.29848 4.29848 8 4.66667 8C5.03486 8 5.33333 8.29848 5.33333 8.66667Z" fill="#1D2026"/>
</svg>
