<svg width="25" height="24" viewBox="0 0 25 24" fill="none" xmlns="http://www.w3.org/2000/svg">
<path d="M17.3351 3.0003C17.5978 2.73766 17.9096 2.52932 18.2527 2.38718C18.5959 2.24503 18.9637 2.17188 19.3351 2.17188C19.7066 2.17187 20.0744 2.24503 20.4175 2.38718C20.7607 2.52932 21.0725 2.73766 21.3351 3.0003C21.5978 3.26295 21.8061 3.57475 21.9483 3.91791C22.0904 4.26107 22.1636 4.62887 22.1636 5.0003C22.1636 5.37174 22.0904 5.73953 21.9483 6.08269C21.8061 6.42586 21.5978 6.73766 21.3351 7.0003L7.83513 20.5003L2.33513 22.0003L3.83513 16.5003L17.3351 3.0003Z" stroke="white" stroke-width="0.888889" stroke-linecap="round" stroke-linejoin="round"/>
</svg>
