<svg width="20" height="20" viewBox="0 0 20 20" fill="none" xmlns="http://www.w3.org/2000/svg">
<path fill-rule="evenodd" clip-rule="evenodd" d="M10 2.29163C5.74281 2.29163 2.29167 5.74276 2.29167 9.99996C2.29167 14.2572 5.74281 17.7083 10 17.7083C14.2572 17.7083 17.7083 14.2572 17.7083 9.99996C17.7083 5.74276 14.2572 2.29163 10 2.29163ZM1.04167 9.99996C1.04167 5.05241 5.05245 1.04163 10 1.04163C14.9476 1.04163 18.9583 5.05241 18.9583 9.99996C18.9583 14.9475 14.9476 18.9583 10 18.9583C5.05245 18.9583 1.04167 14.9475 1.04167 9.99996ZM10 6.04163C10.3452 6.04163 10.625 6.32145 10.625 6.66663V9.74108L12.5253 11.6414C12.7694 11.8854 12.7694 12.2812 12.5253 12.5252C12.2812 12.7693 11.8855 12.7693 11.6414 12.5252L9.55806 10.4419C9.44085 10.3247 9.37501 10.1657 9.37501 9.99996V6.66663C9.37501 6.32145 9.65483 6.04163 10 6.04163Z" fill="#1D2026"/>
</svg>
