<svg width="20" height="20" viewBox="0 0 20 20" fill="none" xmlns="http://www.w3.org/2000/svg">
<path fill-rule="evenodd" clip-rule="evenodd" d="M13.0092 1.31973C14.3898 1.1225 15.625 2.19377 15.625 3.58836V4.73545C16.6162 5.2594 17.2917 6.30083 17.2917 7.50001V15.8333C17.2917 17.5592 15.8926 18.9583 14.1667 18.9583H5.83333C4.10744 18.9583 2.70833 17.5592 2.70833 15.8333V4.16668C2.70833 4.15893 2.70847 4.15122 2.70875 4.14354C2.70847 4.13154 2.70833 4.11952 2.70833 4.10746C2.70833 3.35224 3.26365 2.71196 4.01127 2.60515L13.0092 1.31973ZM3.95833 5.62501V15.8333C3.95833 16.8689 4.79779 17.7083 5.83333 17.7083H14.1667C15.2022 17.7083 16.0417 16.8689 16.0417 15.8333V7.50001C16.0417 6.46448 15.2022 5.62501 14.1667 5.62501H3.95833ZM4.22588 4.37501H14.375V3.58836C14.375 2.95446 13.8135 2.46752 13.186 2.55716L4.18805 3.84259C4.05623 3.86142 3.95833 3.97431 3.95833 4.10746C3.95833 4.25522 4.07812 4.37501 4.22588 4.37501ZM6.04166 10C6.04166 9.65483 6.32148 9.37501 6.66666 9.37501H13.3333C13.6785 9.37501 13.9583 9.65483 13.9583 10C13.9583 10.3452 13.6785 10.625 13.3333 10.625H6.66666C6.32148 10.625 6.04166 10.3452 6.04166 10ZM6.04166 12.9167C6.04166 12.5715 6.32148 12.2917 6.66666 12.2917H11.25C11.5952 12.2917 11.875 12.5715 11.875 12.9167C11.875 13.2619 11.5952 13.5417 11.25 13.5417H6.66666C6.32148 13.5417 6.04166 13.2619 6.04166 12.9167Z" fill="#1D2026"/>
</svg>
