<svg width="156" height="48" viewBox="0 0 156 48" fill="none" xmlns="http://www.w3.org/2000/svg">
<rect x="0.5" y="0.5" width="47" height="47" rx="23.5" fill="white"/>
<rect x="0.5" y="0.5" width="47" height="47" rx="23.5" stroke="#FF6636"/>
<path d="M67.427 32.1677C66.2611 32.1677 65.2069 31.9681 64.2645 31.5688C63.3382 31.1695 62.6034 30.5945 62.0604 29.8438C61.5173 29.0931 61.2378 28.2066 61.2219 27.1844H64.8156C64.8635 27.8712 65.1031 28.4143 65.5343 28.8136C65.9815 29.2129 66.5885 29.4125 67.3551 29.4125C68.1378 29.4125 68.7527 29.2288 69.1999 28.8615C69.6471 28.4782 69.8707 27.983 69.8707 27.3761C69.8707 26.8809 69.719 26.4737 69.4155 26.1542C69.1121 25.8348 68.7287 25.5872 68.2656 25.4115C67.8183 25.2199 67.1954 25.0122 66.3968 24.7886C65.3107 24.4692 64.4243 24.1577 63.7375 23.8542C63.0666 23.5348 62.4837 23.0636 61.9885 22.4407C61.5094 21.8018 61.2698 20.9553 61.2698 19.9012C61.2698 18.9109 61.5173 18.0484 62.0125 17.3137C62.5076 16.579 63.2024 16.0199 64.0968 15.6366C64.9913 15.2373 66.0135 15.0377 67.1635 15.0377C68.8885 15.0377 70.286 15.4609 71.3561 16.3074C72.4422 17.138 73.0412 18.3039 73.153 19.8053H69.4635C69.4315 19.2303 69.1839 18.7591 68.7208 18.3918C68.2735 18.0085 67.6746 17.8168 66.9239 17.8168C66.269 17.8168 65.742 17.9845 65.3427 18.3199C64.9593 18.6553 64.7677 19.1425 64.7677 19.7814C64.7677 20.2286 64.9114 20.6039 65.1989 20.9074C65.5024 21.1949 65.8697 21.4345 66.301 21.6261C66.7482 21.8018 67.3711 22.0095 68.1697 22.249C69.2558 22.5685 70.1423 22.8879 70.8291 23.2074C71.5159 23.5268 72.1068 24.006 72.602 24.6449C73.0971 25.2837 73.3447 26.1223 73.3447 27.1605C73.3447 28.0549 73.1131 28.8854 72.6499 29.6521C72.1867 30.4188 71.5079 31.0337 70.6134 31.4969C69.719 31.9441 68.6569 32.1677 67.427 32.1677ZM74.7193 23.6147C74.7193 21.9695 75.0866 20.5001 75.8213 19.2064C76.572 17.8967 77.5863 16.8824 78.864 16.1637C80.1578 15.429 81.6032 15.0616 83.2004 15.0616C85.0692 15.0616 86.7063 15.5408 88.1119 16.4991C89.5174 17.4574 90.4997 18.7831 91.0587 20.4761H87.2014C86.8181 19.6775 86.2751 19.0786 85.5723 18.6793C84.8855 18.28 84.0869 18.0803 83.1765 18.0803C82.2022 18.0803 81.3317 18.3119 80.565 18.7751C79.8144 19.2223 79.2234 19.8612 78.7921 20.6918C78.3769 21.5223 78.1692 22.4966 78.1692 23.6147C78.1692 24.7167 78.3769 25.691 78.7921 26.5375C79.2234 27.3681 79.8144 28.015 80.565 28.4782C81.3317 28.9254 82.2022 29.149 83.1765 29.149C84.0869 29.149 84.8855 28.9493 85.5723 28.55C86.2751 28.1348 86.8181 27.5278 87.2014 26.7292H91.0587C90.4997 28.4382 89.5174 29.7719 88.1119 30.7302C86.7223 31.6726 85.0851 32.1437 83.2004 32.1437C81.6032 32.1437 80.1578 31.7844 78.864 31.0656C77.5863 30.3309 76.572 29.3167 75.8213 28.023C75.0866 26.7292 74.7193 25.2598 74.7193 23.6147ZM107.077 15.2772V32H103.722V24.8844H96.559V32H93.2048V15.2772H96.559V22.1532H103.722V15.2772H107.077ZM117.422 32.1677C115.856 32.1677 114.419 31.8003 113.109 31.0656C111.799 30.3309 110.761 29.3167 109.995 28.023C109.228 26.7132 108.845 25.2358 108.845 23.5907C108.845 21.9615 109.228 20.5001 109.995 19.2064C110.761 17.8967 111.799 16.8744 113.109 16.1397C114.419 15.405 115.856 15.0377 117.422 15.0377C119.003 15.0377 120.44 15.405 121.734 16.1397C123.044 16.8744 124.074 17.8967 124.825 19.2064C125.591 20.5001 125.975 21.9615 125.975 23.5907C125.975 25.2358 125.591 26.7132 124.825 28.023C124.074 29.3167 123.044 30.3309 121.734 31.0656C120.424 31.8003 118.987 32.1677 117.422 32.1677ZM117.422 29.1729C118.428 29.1729 119.314 28.9493 120.081 28.5021C120.848 28.0389 121.447 27.3841 121.878 26.5375C122.309 25.691 122.525 24.7087 122.525 23.5907C122.525 22.4727 122.309 21.4984 121.878 20.6678C121.447 19.8213 120.848 19.1744 120.081 18.7272C119.314 18.28 118.428 18.0564 117.422 18.0564C116.415 18.0564 115.521 18.28 114.738 18.7272C113.972 19.1744 113.373 19.8213 112.941 20.6678C112.51 21.4984 112.295 22.4727 112.295 23.5907C112.295 24.7087 112.51 25.691 112.941 26.5375C113.373 27.3841 113.972 28.0389 114.738 28.5021C115.521 28.9493 116.415 29.1729 117.422 29.1729ZM135.514 32.1677C133.948 32.1677 132.511 31.8003 131.201 31.0656C129.892 30.3309 128.853 29.3167 128.087 28.023C127.32 26.7132 126.937 25.2358 126.937 23.5907C126.937 21.9615 127.32 20.5001 128.087 19.2064C128.853 17.8967 129.892 16.8744 131.201 16.1397C132.511 15.405 133.948 15.0377 135.514 15.0377C137.095 15.0377 138.532 15.405 139.826 16.1397C141.136 16.8744 142.166 17.8967 142.917 19.2064C143.683 20.5001 144.067 21.9615 144.067 23.5907C144.067 25.2358 143.683 26.7132 142.917 28.023C142.166 29.3167 141.136 30.3309 139.826 31.0656C138.516 31.8003 137.079 32.1677 135.514 32.1677ZM135.514 29.1729C136.52 29.1729 137.406 28.9493 138.173 28.5021C138.94 28.0389 139.539 27.3841 139.97 26.5375C140.401 25.691 140.617 24.7087 140.617 23.5907C140.617 22.4727 140.401 21.4984 139.97 20.6678C139.539 19.8213 138.94 19.1744 138.173 18.7272C137.406 18.28 136.52 18.0564 135.514 18.0564C134.507 18.0564 133.613 18.28 132.83 18.7272C132.064 19.1744 131.465 19.8213 131.034 20.6678C130.602 21.4984 130.387 22.4727 130.387 23.5907C130.387 24.7087 130.602 25.691 131.034 26.5375C131.465 27.3841 132.064 28.0389 132.83 28.5021C133.613 28.9493 134.507 29.1729 135.514 29.1729ZM149.198 29.3406H154.708V32H145.843V15.2772H149.198V29.3406Z" fill="#1D1D1D"/>
</svg>
