<svg width="100" height="100" viewBox="0 0 100 100" fill="none" xmlns="http://www.w3.org/2000/svg">
<path opacity="0.3" d="M55.5833 19.4167L37.5 37.5V79.1667H75L87.5 50V41.6667H50.9583L55.5833 19.4167Z" fill="#FF6636"/>
<path d="M87.5003 33.3333H61.2087L65.167 14.2917L65.292 12.9583C65.292 11.25 64.5837 9.66666 63.4587 8.54166L59.042 4.16666L31.6253 31.625C30.0837 33.125 29.167 35.2083 29.167 37.5V79.1667C29.167 83.75 32.917 87.5 37.5003 87.5H75.0003C78.4587 87.5 81.417 85.4167 82.667 82.4167L95.2503 53.0417C95.6253 52.0833 95.8337 51.0833 95.8337 50V41.6667C95.8337 37.0833 92.0837 33.3333 87.5003 33.3333ZM87.5003 50L75.0003 79.1667H37.5003V37.5L55.5837 19.4167L50.9587 41.6667H87.5003V50ZM4.16699 37.5H20.8337V87.5H4.16699V37.5Z" fill="#FF6636"/>
</svg>
