<svg width="25" height="25" viewBox="0 0 25 25" fill="none" xmlns="http://www.w3.org/2000/svg">
<path fill-rule="evenodd" clip-rule="evenodd" d="M22.0818 9.51705C22.0847 9.84534 22.0228 10.171 21.8998 10.4754C21.7768 10.7798 21.5951 11.057 21.365 11.2911C21.1349 11.5253 20.8609 11.7118 20.5587 11.8401C20.2565 11.9684 19.9319 12.0358 19.6036 12.0387L14.9988 12.0788L14.4412 17.5258C14.3409 18.5049 13.8832 19.4127 13.1556 20.0755C12.4279 20.7383 11.4815 21.1096 10.4973 21.1183L10.1823 21.121C8.06063 21.1394 6.01855 20.3143 4.50526 18.8271C2.99198 17.34 2.13146 15.3125 2.11301 13.1909L2.10714 12.5169C2.09427 11.0314 2.4953 9.57158 3.2653 8.30111C4.0353 7.03064 5.14385 5.99967 6.46674 5.32371L12.1258 2.43238C12.8427 2.06613 13.8079 2.32474 14.1602 3.16171C14.5963 4.19996 14.6849 5.19122 14.1748 6.2157C14.026 6.513 13.8339 6.80469 13.5984 7.09075L19.5602 7.03889C20.2232 7.03312 20.8613 7.29097 21.3342 7.75572C21.8071 8.22047 22.076 8.85404 22.0818 9.51705ZM20.0819 9.53445C20.0807 9.40184 20.0269 9.27513 19.9324 9.18218C19.8378 9.08923 19.7102 9.03766 19.5776 9.03881L11.0779 9.11275C10.8706 9.11465 10.6679 9.05209 10.4977 8.93374C10.3276 8.81539 10.1984 8.64709 10.128 8.45211C10.0577 8.25714 10.0497 8.04512 10.1051 7.8454C10.1605 7.64567 10.2767 7.4681 10.4374 7.33725L10.8415 7.00172L11.1929 6.69665C11.8448 6.11096 12.2041 5.68582 12.384 5.32624C12.5205 5.07003 12.5595 4.77302 12.4937 4.49026L7.37627 7.10487C6.38423 7.61189 5.55294 8.38511 4.97554 9.3379C4.39813 10.2907 4.09742 11.3854 4.10707 12.4995L4.11293 13.1735C4.12677 14.7647 4.77216 16.2853 5.90712 17.4007C7.04209 18.5161 8.57365 19.1349 10.1649 19.1211L10.4799 19.1183C10.9722 19.1141 11.4457 18.9284 11.8096 18.5968C12.1736 18.2651 12.4024 17.8109 12.4523 17.3211L13.009 11.8751C13.0589 11.3852 13.2877 10.931 13.6517 10.5994C14.0156 10.2678 14.4891 10.0821 14.9814 10.0778L19.5862 10.0378C19.7188 10.0366 19.8456 9.98284 19.9385 9.88826C20.0315 9.79368 20.083 9.66605 20.0819 9.53345L20.0819 9.53445ZM20.2522 5.89283C20.1398 5.96107 20.015 6.00647 19.885 6.02642C19.755 6.04636 19.6223 6.04046 19.4946 6.00906C19.3669 5.97766 19.2466 5.92137 19.1406 5.84342C19.0347 5.76546 18.9452 5.66738 18.8772 5.55477C18.5899 5.07925 18.2484 4.63858 17.8598 4.24157C17.7716 4.151 17.6799 4.06413 17.5845 3.98096L17.4374 3.86123C17.2235 3.70616 17.0796 3.47269 17.0372 3.21184C16.9948 2.95099 17.0574 2.68398 17.2113 2.46915C17.3675 2.25557 17.6012 2.11181 17.8623 2.06877C18.1234 2.02573 18.3909 2.08685 18.6074 2.239C18.8482 2.41797 19.0737 2.61671 19.2816 2.83315C19.7802 3.34198 20.218 3.90701 20.5863 4.51687C20.6545 4.62909 20.6999 4.75364 20.72 4.88342C20.7401 5.0132 20.7344 5.14566 20.7033 5.27325C20.6722 5.40083 20.6162 5.52104 20.5387 5.62701C20.4611 5.73297 20.3634 5.82262 20.2512 5.89084L20.2522 5.89283ZM20.715 13.1121C20.959 13.216 21.1517 13.4125 21.2508 13.6584C21.3499 13.9043 21.3472 14.1795 21.2435 14.4235C20.8525 15.349 20.3187 16.2074 19.6615 16.9674C19.3843 17.2858 19.084 17.6014 18.7432 17.8544C18.5303 18.0124 18.2633 18.0794 18.0009 18.0407C17.7386 18.0019 17.5024 17.8605 17.3443 17.6476C17.0408 17.2402 17.1059 16.6786 17.4549 16.3326L17.7378 16.0861L17.8836 15.9448L18.059 15.7613C18.6216 15.1341 19.076 14.4177 19.4036 13.6415C19.5073 13.3976 19.7035 13.2049 19.9493 13.1056C20.195 13.0064 20.471 13.0087 20.715 13.1121Z" fill="#1D1D1D"/>
</svg>
